<?xml version="1.0" encoding="UTF-8"?>
<svg width="428px" height="154px" viewBox="0 0 428 154" version="1.1" xmlns="http://www.w3.org/2000/svg" xmlns:xlink="http://www.w3.org/1999/xlink">
    <!-- Generator: Sketch 48.2 (47327) - http://www.bohemiancoding.com/sketch -->
    <title>mdpi/broadband</title>
    <desc>Created with Sketch.</desc>
    <defs></defs>
    <g id="Page-1" stroke="none" stroke-width="1" fill="none" fill-rule="evenodd">
        <g id="broadband" fill="#FFFFFF">
            <text font-family="Telenor" font-size="35" font-weight="normal">
                <tspan x="231" y="106">broadband</tspan>
            </text>
            <text id="telenor" font-family="Telenor" font-size="35" font-weight="normal">
                <tspan x="41.2758789" y="106">telenor</tspan>
            </text>
            <path d="M194.238848,34.5247187 C196.502709,34.5247187 198.344582,36.3990201 198.344582,38.7027389 C198.344582,41.0067091 196.502709,42.8810104 194.238848,42.8810104 C191.97474,42.8810104 190.132867,41.0067091 190.132867,38.7027389 C190.132867,36.3990201 191.97474,34.5247187 194.238848,34.5247187 Z M198.742851,116.278199 L209.917128,108.767166 L215.288825,127.40006 L198.742851,116.278199 Z M173.188624,127.399808 L178.560322,108.766915 L189.734598,116.277948 L173.188624,127.399808 Z M188.92867,72.8011959 L194.238848,54.3812509 L199.548779,72.8011959 L188.92867,72.8011959 Z M183.995514,89.9132782 L187.471972,77.8533871 L201.00523,77.8533871 L204.481688,89.9132782 L183.995514,89.9132782 Z M182.539064,94.9654695 L205.938386,94.9654695 L208.454994,103.694862 L194.238848,113.250656 L180.022455,103.694862 L182.539064,94.9654695 Z M191.089011,47.3584662 C187.63553,46.0528664 185.168087,42.6660503 185.168087,38.7027389 C185.168087,33.6133381 189.237255,29.4725275 194.238848,29.4725275 C199.240194,29.4725275 203.309362,33.6133381 203.309362,38.7027389 C203.309362,42.6660503 200.841919,46.0528664 197.388439,47.3584662 L205.233755,74.5726684 C205.234743,74.5756853 205.235484,74.5789537 205.236473,74.5822221 L210.167405,91.686762 C210.167652,91.6877677 210.168146,91.6890248 210.168393,91.6902818 L213.73676,104.068213 C213.737254,104.070476 213.737995,104.072487 213.738489,104.074499 L223.738216,138.762022 C224.124379,140.100809 223.370583,141.50446 222.055206,141.897171 C221.822224,141.966813 221.58677,142 221.355517,142 C220.28177,142 219.291779,141.285729 218.9743,140.184278 L217.453859,134.910087 L194.238848,119.305491 L171.02359,134.910087 L169.503149,140.184278 C169.117233,141.523065 167.739349,142.28963 166.422243,141.897171 C165.106866,141.50446 164.353317,140.100557 164.739233,138.762022 L174.73896,104.07475 C174.739454,104.072487 174.740196,104.070476 174.74069,104.068465 L191.089011,47.3584662 Z M177.59681,56.8391779 C169.715711,47.9540206 169.715711,33.4965289 177.596579,24.6113715 C178.501856,23.5910813 179.968751,23.5910813 180.874027,24.6113715 C181.779074,25.6314017 181.779074,27.2856032 180.874027,28.3058934 C174.799562,35.1538505 174.799562,46.296699 180.874027,53.1446561 C181.779074,54.1646863 181.779074,55.8188877 180.874027,56.8391779 C180.421504,57.349063 179.828519,57.6043956 179.235303,57.6043956 C178.642318,57.6043956 178.049333,57.349323 177.59681,56.8391779 Z M215.382085,19.6263736 C219.137764,19.6263736 219.143864,14 215.382085,14 C211.626406,14 211.620016,19.6263736 215.382085,19.6263736 Z M205.368222,54.6872456 C204.393568,53.7084229 204.393568,52.1214529 205.367973,51.1431291 C211.911296,44.5734926 211.911296,33.8835212 205.367973,27.3138847 C204.39332,26.335062 204.39332,24.748092 205.367973,23.7695188 C206.343621,22.790696 207.923737,22.790696 208.898391,23.7695188 C217.388039,32.2933085 217.388039,46.1632064 208.898391,54.6872456 C208.41094,55.1764075 207.772185,55.4213626 207.133431,55.4213626 C206.494428,55.4213626 205.855673,55.176657 205.368222,54.6872456 Z M170.870501,64.4565149 C170.23125,64.4565149 169.592744,64.2118092 169.105044,63.7223979 C162.588802,57.1797014 159,48.4810506 159,39.2281327 C159,29.9754643 162.588802,21.2768135 169.105044,14.734117 C170.080443,13.7552943 171.66056,13.7552943 172.635462,14.734117 C173.610364,15.7126903 173.610364,17.2999097 172.635462,18.278483 C161.129679,29.8302872 161.129679,48.6262277 172.635462,60.1780319 C173.610364,61.1566052 173.610364,62.7435752 172.635462,63.7223979 C172.148011,64.2115598 171.509504,64.4565149 170.870501,64.4565149 Z M218.645673,23.7081553 C217.922943,22.529527 218.288408,20.985711 219.461818,20.2595762 C220.635725,19.5336909 222.173606,19.9008741 222.896584,21.079253 C226.898552,27.6019938 228.63668,35.4108738 227.79097,43.0670934 C226.931844,50.8435455 223.418072,58.1792281 217.897105,63.7226473 C217.409654,64.2120587 216.770899,64.4567644 216.132145,64.4567644 C215.493142,64.4567644 214.854387,64.2120587 214.366936,63.7226473 C213.392282,62.7435752 213.392282,61.1566052 214.366936,60.1780319 C224.07869,50.427471 225.838185,35.43058 218.645673,23.7081553 Z" id="Fill-1"></path>
        </g>
    </g>
</svg>