<?xml version="1.0" encoding="UTF-8"?>
<svg width="135px" height="40px" viewBox="0 0 135 40" version="1.1" xmlns="http://www.w3.org/2000/svg" xmlns:xlink="http://www.w3.org/1999/xlink">
    <!-- Generator: Sketch 48.2 (47327) - http://www.bohemiancoding.com/sketch -->
    <title>mdpi/direct_download</title>
    <desc>Created with Sketch.</desc>
    <defs></defs>
    <g id="Page-1" stroke="none" stroke-width="1" fill="none" fill-rule="evenodd">
        <g id="direct_download">
            <path d="M130.197,40 L4.729,40 C2.122,40 0,37.872 0,35.267 L0,4.726 C0,2.12 2.122,0 4.729,0 L130.197,0 C132.803,0 135,2.12 135,4.726 L135,35.267 C135,37.872 132.803,40 130.197,40 Z" id="Shape" fill="#A6A6A6" fill-rule="nonzero"></path>
            <path d="M134.032,35.268 C134.032,37.384 132.318,39.098 130.198,39.098 L4.729,39.098 C2.61,39.098 0.89,37.384 0.89,35.268 L0.89,4.725 C0.89,2.61 2.61,0.89 4.729,0.89 L130.197,0.89 C132.318,0.89 134.031,2.61 134.031,4.725 L134.032,35.268 Z" id="Shape" fill="#000000" fill-rule="nonzero"></path>
            <path d="M42.9308494,13 L42.9308494,6.40380859 L45.1808494,6.40380859 C45.9367126,6.40380859 46.5006718,6.56640462 46.8727439,6.89160156 C47.2448161,7.2167985 47.4308494,7.73241834 47.4308494,8.43847656 L47.4308494,11.0488281 C47.4308494,11.699222 47.2433513,12.1870101 46.8683494,12.512207 C46.4933475,12.837404 45.9396421,13 45.2072166,13 L42.9308494,13 Z M43.8229392,12.2353516 L45.2160056,12.2353516 C45.6525313,12.2353516 45.980653,12.1394053 46.2003806,11.9475098 C46.4201083,11.7556143 46.5299705,11.4560567 46.5299705,11.0488281 L46.5299705,8.44726562 C46.5299705,8.01366971 46.4186435,7.69213972 46.1959861,7.48266602 C45.9733288,7.27319231 45.6378829,7.16845703 45.1896385,7.16845703 L43.8229392,7.16845703 L43.8229392,12.2353516 Z M48.7975486,12.9648438 L48.7975486,8.16601562 C48.7975486,8.11914039 48.9411019,8.09570312 49.2282127,8.09570312 C49.5153235,8.09570312 49.6588767,8.11914039 49.6588767,8.16601562 L49.6588767,12.9648438 C49.6588767,13.011719 49.5153235,13.0351562 49.2282127,13.0351562 C48.9411019,13.0351562 48.7975486,13.011719 48.7975486,12.9648438 Z M48.7975486,7.34863281 L48.7975486,6.32910156 C48.7975486,6.28222633 48.9411019,6.25878906 49.2282127,6.25878906 C49.5153235,6.25878906 49.6588767,6.28222633 49.6588767,6.32910156 L49.6588767,7.34863281 C49.6588767,7.39550805 49.5153235,7.41894531 49.2282127,7.41894531 C48.9411019,7.41894531 48.7975486,7.39550805 48.7975486,7.34863281 Z M51.0387596,12.9648438 L51.0387596,8.15722656 C51.0387596,8.11035133 51.1764535,8.08691406 51.4518455,8.08691406 C51.7272375,8.08691406 51.8649314,8.11035133 51.8649314,8.15722656 L51.8649314,9.21191406 C52.1432531,8.77538844 52.3710341,8.48022538 52.548281,8.32641602 C52.725528,8.17260665 52.94452,8.09570312 53.2052635,8.09570312 L53.4689353,8.09570312 C53.5158106,8.09570312 53.5392478,8.24511569 53.5392478,8.54394531 C53.5392478,8.83984523 53.5128809,8.98779297 53.4601463,8.98779297 L53.0778221,8.98779297 C52.8844617,8.98779297 52.6998932,9.0698234 52.5241111,9.23388672 C52.348329,9.39795004 52.1403233,9.66015445 51.9000877,10.0205078 L51.9000877,12.9648438 C51.9000877,13.011719 51.7536048,13.0351562 51.4606346,13.0351562 C51.1793831,13.0351562 51.0387596,13.011719 51.0387596,12.9648438 Z M54.1325096,11.2729492 L54.1325096,9.92382812 C54.1325096,9.32909859 54.308289,8.85888845 54.6598533,8.51318359 C55.0114176,8.16747874 55.4743036,7.99462891 56.0485252,7.99462891 C56.6813408,7.99462891 57.1683965,8.16967598 57.5097068,8.51977539 C57.8510171,8.8698748 58.0216697,9.36132496 58.0216697,9.99414062 L58.0216697,10.9125977 L54.9762596,10.9125977 L54.9762596,11.2993164 C54.9762596,11.6567401 55.0744031,11.9335928 55.2706931,12.1298828 C55.4669832,12.3261729 55.7570194,12.4243164 56.1408103,12.4243164 C56.4220617,12.4243164 56.6762096,12.3906253 56.9032615,12.3232422 C57.1303134,12.255859 57.3683482,12.1577155 57.6173728,12.0288086 C57.6437402,12.0141601 57.6906147,12.0566401 57.7579978,12.15625 C57.825381,12.2558599 57.8803121,12.3613276 57.9227928,12.4726562 C57.9652734,12.5839849 57.97333,12.6484374 57.9469627,12.6660156 C57.3961787,12.9794938 56.7809505,13.1362305 56.1012596,13.1362305 C55.4918815,13.1362305 55.0114176,12.96924 54.6598533,12.6352539 C54.308289,12.3012679 54.1325096,11.8471708 54.1325096,11.2729492 Z M54.9674705,10.2709961 L57.1823142,10.2709961 L57.1823142,9.87548828 C57.1823142,9.4975567 57.0797762,9.20678813 56.8746971,9.00317383 C56.6696179,8.79955953 56.3971597,8.69775391 56.0573142,8.69775391 C55.7291876,8.69775391 55.4655184,8.80029194 55.2662986,9.00537109 C55.0670789,9.21045024 54.9674705,9.49755675 54.9674705,9.86669922 L54.9674705,10.2709961 Z M59.0631736,11.2993164 L59.0631736,9.84033203 C59.0631736,9.26025101 59.2338262,8.80908364 59.5751365,8.48681641 C59.9164468,8.16454917 60.3786004,8.00341797 60.9616111,8.00341797 C61.2897378,8.00341797 61.5929574,8.0502925 61.8712791,8.14404297 C62.1496008,8.23779344 62.3869031,8.35644459 62.5831931,8.5 C62.6183496,8.52929702 62.6161523,8.60473572 62.5766014,8.72631836 C62.5370504,8.847901 62.479922,8.9584956 62.4052146,9.05810547 C62.3305072,9.15771534 62.2697168,9.19433607 62.2228416,9.16796875 C62.2140525,9.16210935 62.1825587,9.14233415 62.1283592,9.10864258 C62.0741597,9.074951 62.0302148,9.04858408 61.9965232,9.02954102 C61.9628317,9.01049795 61.9152247,8.98413103 61.853701,8.95043945 C61.7921772,8.91674788 61.7335841,8.88964854 61.6779197,8.86914062 C61.6222554,8.84863271 61.5600001,8.82739269 61.4911521,8.80541992 C61.4223041,8.78344716 61.3505275,8.76733404 61.2758201,8.75708008 C61.2011127,8.74682612 61.125674,8.74169922 61.0495017,8.74169922 C60.3082871,8.74169922 59.9376853,9.13866791 59.9376853,9.93261719 L59.9376853,11.2553711 C59.9376853,12.0229531 60.3082871,12.4067383 61.0495017,12.4067383 C61.4098551,12.4067383 61.8068238,12.2587905 62.2404197,11.9628906 C62.2872949,11.9277342 62.3488178,11.9570308 62.42499,12.0507812 C62.504092,12.1503911 62.56415,12.2587885 62.6051658,12.3759766 C62.6256737,12.4375003 62.6359275,12.4858397 62.6359275,12.5209961 C62.6359275,12.5561525 62.6271386,12.5810546 62.6095603,12.5957031 C62.4367079,12.7363288 62.1994056,12.8615717 61.8976463,12.9714355 C61.595887,13.0812994 61.2838784,13.1362305 60.9616111,13.1362305 C60.3756707,13.1362305 59.9127847,12.9780289 59.5729392,12.6616211 C59.2330938,12.3452133 59.0631736,11.8911162 59.0631736,11.2993164 Z M63.1369041,8.60986328 C63.1369041,8.37548711 63.163271,8.25830078 63.2160056,8.25830078 L63.8839744,8.25830078 L63.8839744,7.09814453 C63.8839744,7.04833959 64.0275277,7.0234375 64.3146385,7.0234375 C64.5871008,7.0234375 64.7233299,7.04833959 64.7233299,7.09814453 L64.7233299,8.25830078 L65.7296775,8.25830078 C65.7765528,8.25830078 65.79999,8.37548711 65.79999,8.60986328 C65.79999,8.84130975 65.7765528,8.95703125 65.7296775,8.95703125 L64.7233299,8.95703125 L64.7233299,11.8046875 C64.7233299,11.9716805 64.760683,12.0910641 64.8353904,12.1628418 C64.9100978,12.2346195 65.0368055,12.2705078 65.2155174,12.2705078 L65.6681541,12.2705078 C65.7296778,12.2705078 65.7684958,12.2895506 65.7846092,12.3276367 C65.8007225,12.3657228 65.8087791,12.4667961 65.8087791,12.6308594 C65.8087791,12.7949227 65.8007225,12.8974607 65.7846092,12.9384766 C65.7684958,12.9794924 65.7296778,13 65.6681541,13 L65.0529197,13 C64.6603396,13 64.3673738,12.8989268 64.1740135,12.6967773 C63.9806531,12.4946279 63.8839744,12.2119159 63.8839744,11.8486328 L63.8839744,8.95703125 L63.2160056,8.95703125 C63.163271,8.95703125 63.1369041,8.84130975 63.1369041,8.60986328 Z M68.9376853,13 L68.9376853,6.40380859 L71.1876853,6.40380859 C71.9435485,6.40380859 72.5075077,6.56640462 72.8795799,6.89160156 C73.251652,7.2167985 73.4376853,7.73241834 73.4376853,8.43847656 L73.4376853,11.0488281 C73.4376853,11.699222 73.2501872,12.1870101 72.8751853,12.512207 C72.5001835,12.837404 71.9464781,13 71.2140525,13 L68.9376853,13 Z M69.8297752,12.2353516 L71.2228416,12.2353516 C71.6593672,12.2353516 71.9874889,12.1394053 72.2072166,11.9475098 C72.4269442,11.7556143 72.5368064,11.4560567 72.5368064,11.0488281 L72.5368064,8.44726562 C72.5368064,8.01366971 72.4254794,7.69213972 72.2028221,7.48266602 C71.9801647,7.27319231 71.6447188,7.16845703 71.1964744,7.16845703 L69.8297752,7.16845703 L69.8297752,12.2353516 Z M74.6417869,11.2993164 L74.6417869,9.83154297 C74.6417869,9.23974313 74.8241581,8.78564611 75.188906,8.46923828 C75.553654,8.15283045 76.0524283,7.99462891 76.6852439,7.99462891 C77.3209893,7.99462891 77.8219609,8.15283045 78.1881736,8.46923828 C78.5543864,8.78564611 78.73749,9.23974313 78.73749,9.83154297 L78.73749,11.2993164 C78.73749,11.8852568 78.5499919,12.337889 78.17499,12.6572266 C77.7999881,12.9765641 77.3034111,13.1362305 76.6852439,13.1362305 C76.0377798,13.1362305 75.5353434,12.9787613 75.1779197,12.6638184 C74.8204961,12.3488754 74.6417869,11.8940459 74.6417869,11.2993164 Z M75.503115,11.2553711 C75.503115,11.6479512 75.6005262,11.9350577 75.7953514,12.1166992 C75.9901765,12.2983408 76.2868044,12.3891602 76.6852439,12.3891602 C77.4762635,12.3891602 77.8717674,12.0112342 77.8717674,11.2553711 L77.8717674,9.87548828 C77.8717674,9.11962513 77.4762635,8.74169922 76.6852439,8.74169922 C76.2868044,8.74169922 75.9901765,8.83251862 75.7953514,9.01416016 C75.6005262,9.19580169 75.503115,9.48290819 75.503115,9.87548828 L75.503115,11.2553711 Z M79.4537986,8.16601562 C79.4508689,8.15429682 79.4552634,8.14404301 79.4669822,8.13525391 C79.478701,8.1264648 79.4984762,8.11987307 79.5263084,8.11547852 C79.5541406,8.11108396 79.5805075,8.10742189 79.6054099,8.10449219 C79.6303124,8.10156249 79.6640035,8.09936524 79.7064842,8.09790039 C79.7489648,8.09643554 79.7826559,8.09570312 79.8075584,8.09570312 L79.9064353,8.09570312 C80.1759679,8.09570312 80.3165915,8.11914039 80.3283103,8.16601562 L80.8336814,10.4248047 C80.9596586,10.9667996 81.0695208,11.5615202 81.1632713,12.2089844 L81.1720603,12.2089844 C81.2892484,11.4824182 81.4064348,10.884768 81.5236228,10.4160156 L82.0729392,8.16601562 C82.0846581,8.11914039 82.2106334,8.09570312 82.4508689,8.09570312 C82.6969639,8.09570312 82.8229392,8.11914039 82.8287986,8.16601562 L83.3517478,10.4160156 C83.4923735,11.0195343 83.6007709,11.6142549 83.6769431,12.2001953 L83.6945213,12.2001953 C83.7736232,11.5966767 83.8820206,11.0019561 84.0197166,10.4160156 L84.5470603,8.16601562 C84.5587791,8.11914039 84.6906138,8.09570312 84.9425681,8.09570312 C85.0070216,8.09570312 85.0575582,8.09643554 85.0941795,8.09790039 C85.1308008,8.09936524 85.175478,8.10156249 85.2282127,8.10449219 C85.2809473,8.10742189 85.3190329,8.11401362 85.3424705,8.12426758 C85.3659081,8.13452154 85.3746971,8.14843741 85.3688377,8.16601562 L84.0988181,12.9648438 C84.0812399,13.011719 83.9245032,13.0351562 83.6286033,13.0351562 C83.3473519,13.0351562 83.200869,13.011719 83.1891502,12.9648438 L82.7145408,10.9125977 C82.565126,10.2680632 82.4684473,9.76123231 82.4245017,9.39208984 L82.4069236,9.39208984 C82.3571187,9.82275606 82.2575103,10.3325166 82.1080955,10.9213867 L81.615908,12.9648438 C81.6100486,13.011719 81.4503822,13.0351562 81.1369041,13.0351562 C80.8439339,13.0351562 80.6915916,13.011719 80.6798728,12.9648438 L79.4537986,8.16601562 Z M86.2916892,12.9648438 L86.2916892,8.15722656 C86.2916892,8.11035133 86.4352425,8.08691406 86.7223533,8.08691406 C86.9918859,8.08691406 87.1266502,8.11035133 87.1266502,8.15722656 L87.1266502,8.84277344 C87.1852442,8.76367148 87.2592181,8.68164105 87.348574,8.59667969 C87.4379299,8.51171833 87.5521866,8.42089892 87.6913474,8.32421875 C87.8305083,8.22753858 87.996034,8.14843781 88.1879295,8.08691406 C88.379825,8.02539032 88.5783093,7.99462891 88.7833885,7.99462891 C89.1964765,7.99755861 89.5245982,8.13744979 89.7677635,8.41430664 C90.0109287,8.69116349 90.1325096,9.05224387 90.1325096,9.49755859 L90.1325096,12.9648438 C90.1325096,13.011719 89.9889563,13.0351562 89.7018455,13.0351562 C89.4147347,13.0351562 89.2711814,13.011719 89.2711814,12.9648438 L89.2711814,9.75244141 C89.2711814,9.11669604 89.0163012,8.79882812 88.506533,8.79882812 C88.260438,8.79882812 88.0128819,8.8881827 87.7638572,9.06689453 C87.5148325,9.24560636 87.3112213,9.45800658 87.1530174,9.70410156 L87.1530174,12.9648438 C87.1530174,13.011719 87.0094641,13.0351562 86.7223533,13.0351562 C86.4352425,13.0351562 86.2916892,13.011719 86.2916892,12.9648438 Z M91.4640525,11.8486328 L91.4640525,6.32910156 C91.4640525,6.28222633 91.6076058,6.25878906 91.8947166,6.25878906 C92.1818274,6.25878906 92.3253806,6.28222633 92.3253806,6.32910156 L92.3253806,11.7739258 C92.3253806,11.9379891 92.3663959,12.0573727 92.4484275,12.1320801 C92.5304592,12.2067875 92.6637586,12.2441406 92.8483299,12.2441406 L93.0548728,12.2441406 C93.1105372,12.2441406 93.1471579,12.2661131 93.1647361,12.3100586 C93.1823143,12.3540041 93.1911033,12.4550773 93.1911033,12.6132812 C93.1911033,12.7802743 93.1823143,12.8864744 93.1647361,12.9318848 C93.1471579,12.9772951 93.1105372,13 93.0548728,13 L92.6417869,13 C92.2521365,13 91.9584383,12.8981944 91.7606834,12.6945801 C91.5629285,12.4909658 91.4640525,12.2089862 91.4640525,11.8486328 Z M93.92499,11.2993164 L93.92499,9.83154297 C93.92499,9.23974313 94.1073612,8.78564611 94.4721092,8.46923828 C94.8368571,8.15283045 95.3356314,7.99462891 95.9684471,7.99462891 C96.6041924,7.99462891 97.105164,8.15283045 97.4713767,8.46923828 C97.8375895,8.78564611 98.0206931,9.23974313 98.0206931,9.83154297 L98.0206931,11.2993164 C98.0206931,11.8852568 97.833195,12.337889 97.4581931,12.6572266 C97.0831913,12.9765641 96.5866142,13.1362305 95.9684471,13.1362305 C95.3209829,13.1362305 94.8185465,12.9787613 94.4611228,12.6638184 C94.1036992,12.3488754 93.92499,11.8940459 93.92499,11.2993164 Z M94.7863181,11.2553711 C94.7863181,11.6479512 94.8837293,11.9350577 95.0785545,12.1166992 C95.2733797,12.2983408 95.5700076,12.3891602 95.9684471,12.3891602 C96.7594666,12.3891602 97.1549705,12.0112342 97.1549705,11.2553711 L97.1549705,9.87548828 C97.1549705,9.11962513 96.7594666,8.74169922 95.9684471,8.74169922 C95.5700076,8.74169922 95.2733797,8.83251862 95.0785545,9.01416016 C94.8837293,9.19580169 94.7863181,9.48290819 94.7863181,9.87548828 L94.7863181,11.2553711 Z M98.978701,11.6333008 L98.978701,11.4091797 C98.978701,11.1484362 99.0336321,10.9228525 99.1434959,10.7324219 C99.2533597,10.5419912 99.4298716,10.3823249 99.6730369,10.253418 C99.9132725,10.1215814 100.225281,10.0439454 100.609072,10.0205078 C100.708682,10.0146484 100.81415,10.0117188 100.925478,10.0117188 C101.241886,10.0117188 101.603699,10.0380857 102.010928,10.0908203 L102.010928,9.77880859 C102.010928,9.42138493 101.931827,9.16723708 101.773623,9.01635742 C101.615419,8.86547776 101.353215,8.79003906 100.987002,8.79003906 C100.462585,8.79003906 100.004094,8.88818261 99.6115135,9.08447266 C99.5822164,9.10205087 99.5426661,9.06250048 99.4928611,8.96582031 C99.4049701,8.79589759 99.3551659,8.63330156 99.3434471,8.47802734 C99.3375877,8.40478479 99.3478415,8.36083992 99.3742088,8.34619141 C99.5704988,8.26123004 99.8173225,8.18798859 100.114687,8.12646484 C100.412052,8.0649411 100.714539,8.03417969 101.022158,8.03417969 C102.229195,8.03417969 102.832705,8.6186465 102.832705,9.78759766 L102.832705,12.9648438 C102.832705,13.011719 102.70087,13.0351562 102.437197,13.0351562 C102.158875,13.0351562 102.019717,13.011719 102.019717,12.9648438 L102.019717,12.4946289 C101.958193,12.5473635 101.891543,12.6000974 101.819765,12.652832 C101.747988,12.7055667 101.644717,12.7707516 101.509951,12.8483887 C101.375185,12.9260258 101.220645,12.9890134 101.046328,13.0373535 C100.872011,13.0856936 100.695499,13.1098633 100.516787,13.1098633 C100.042175,13.1098633 99.6671789,12.9765638 99.3917869,12.7099609 C99.1163949,12.443358 98.978701,12.0844749 98.978701,11.6333008 Z M99.8004783,11.5981445 C99.8004783,11.8500989 99.884706,12.0434564 100.053164,12.1782227 C100.221622,12.312989 100.446473,12.3803711 100.727724,12.3803711 C101.193547,12.3803711 101.621277,12.2001971 102.010928,11.8398438 L102.010928,10.7060547 C101.656434,10.6474606 101.34296,10.6181641 101.070498,10.6181641 C100.806825,10.6181641 100.578311,10.6459958 100.384951,10.7016602 C99.9982303,10.8129888 99.803408,11.0385725 99.8004783,11.378418 L99.8004783,11.5981445 Z M104.019228,11.3168945 L104.019228,9.80517578 C104.019228,9.50634616 104.067568,9.24047968 104.164248,9.00756836 C104.260928,8.77465704 104.393495,8.58496167 104.561953,8.43847656 C104.730411,8.29199146 104.924501,8.18139686 105.144228,8.10668945 C105.363956,8.03198205 105.601258,7.99462891 105.856142,7.99462891 C106.204777,7.99462891 106.49701,8.0598138 106.732851,8.19018555 C106.968692,8.32055729 107.126162,8.45019467 107.205263,8.57910156 L107.205263,6.32910156 C107.205263,6.28222633 107.348817,6.25878906 107.635928,6.25878906 C107.925968,6.25878906 108.070986,6.28222633 108.070986,6.32910156 L108.070986,12.9648438 C108.070986,13.011719 107.928898,13.0351562 107.644717,13.0351562 C107.381043,13.0351562 107.249209,13.011719 107.249209,12.9648438 L107.249209,12.3979492 C107.120302,12.597169 106.934269,12.768554 106.691103,12.9121094 C106.447938,13.0556648 106.153507,13.1274414 105.807803,13.1274414 C105.561708,13.1274414 105.332462,13.0900883 105.120058,13.0153809 C104.907655,12.9406735 104.718692,12.8308113 104.553164,12.685791 C104.387636,12.5407708 104.257266,12.3510754 104.162051,12.1166992 C104.066835,11.882323 104.019228,11.6157242 104.019228,11.3168945 Z M104.89374,11.1806641 C104.89374,11.5908224 104.994813,11.8903799 105.196963,12.0793457 C105.399112,12.2683115 105.678894,12.362793 106.036318,12.362793 C106.387882,12.362793 106.670594,12.2456066 106.884463,12.0112305 C107.098331,11.7768543 107.205263,11.488283 107.205263,11.1455078 L107.205263,9.95898438 C107.205263,9.5869122 107.094669,9.29101672 106.873476,9.07128906 C106.652284,8.8515614 106.357121,8.74169922 105.987978,8.74169922 C105.258482,8.74169922 104.89374,9.13573825 104.89374,9.92382812 L104.89374,11.1806641 Z M110.980166,8.60107422 C110.980166,8.37255745 111.005068,8.25830078 111.054873,8.25830078 L111.674502,8.25830078 L111.674502,7.53759766 C111.674502,7.13915816 111.77704,6.83227647 111.982119,6.61694336 C112.187198,6.40161025 112.477234,6.29394531 112.852236,6.29394531 L113.520205,6.29394531 C113.537783,6.29394531 113.550967,6.30053704 113.559756,6.3137207 C113.568545,6.32690436 113.575869,6.36059543 113.581728,6.41479492 C113.587588,6.46899441 113.590517,6.5488276 113.590517,6.65429688 C113.590517,6.75976615 113.587588,6.83886692 113.581728,6.89160156 C113.575869,6.9443362 113.568545,6.97656244 113.559756,6.98828125 C113.550967,7.00000006 113.537783,7.00585938 113.520205,7.00585938 L113.023623,7.00585938 C112.85077,7.00585938 112.726992,7.05273391 112.652285,7.14648438 C112.577578,7.24023484 112.540224,7.38525292 112.540224,7.58154297 L112.540224,8.25830078 L113.375185,8.25830078 C113.43085,8.25830078 113.458681,8.37255745 113.458681,8.60107422 C113.458681,8.83838009 113.43085,8.95703125 113.375185,8.95703125 L112.549013,8.95703125 L112.549013,12.9560547 C112.549013,13.0087893 112.403995,13.0351562 112.113955,13.0351562 C111.820985,13.0351562 111.674502,13.0087893 111.674502,12.9560547 L111.674502,8.95703125 L111.054873,8.95703125 C111.005068,8.95703125 110.980166,8.83838009 110.980166,8.60107422 Z M114.482607,12.9648438 L114.482607,8.15722656 C114.482607,8.11035133 114.620301,8.08691406 114.895693,8.08691406 C115.171085,8.08691406 115.308779,8.11035133 115.308779,8.15722656 L115.308779,9.21191406 C115.587101,8.77538844 115.814882,8.48022538 115.992129,8.32641602 C116.169376,8.17260665 116.388368,8.09570312 116.649111,8.09570312 L116.912783,8.09570312 C116.959658,8.09570312 116.983095,8.24511569 116.983095,8.54394531 C116.983095,8.83984523 116.956729,8.98779297 116.903994,8.98779297 L116.52167,8.98779297 C116.328309,8.98779297 116.143741,9.0698234 115.967959,9.23388672 C115.792177,9.39795004 115.584171,9.66015445 115.343935,10.0205078 L115.343935,12.9648438 C115.343935,13.011719 115.197452,13.0351562 114.904482,13.0351562 C114.623231,13.0351562 114.482607,13.011719 114.482607,12.9648438 Z M117.567568,11.2993164 L117.567568,9.83154297 C117.567568,9.23974313 117.749939,8.78564611 118.114687,8.46923828 C118.479435,8.15283045 118.97821,7.99462891 119.611025,7.99462891 C120.246771,7.99462891 120.747742,8.15283045 121.113955,8.46923828 C121.480168,8.78564611 121.663271,9.23974313 121.663271,9.83154297 L121.663271,11.2993164 C121.663271,11.8852568 121.475773,12.337889 121.100771,12.6572266 C120.725769,12.9765641 120.229192,13.1362305 119.611025,13.1362305 C118.963561,13.1362305 118.461125,12.9787613 118.103701,12.6638184 C117.746277,12.3488754 117.567568,11.8940459 117.567568,11.2993164 Z M118.428896,11.2553711 C118.428896,11.6479512 118.526307,11.9350577 118.721133,12.1166992 C118.915958,12.2983408 119.212586,12.3891602 119.611025,12.3891602 C120.402045,12.3891602 120.797549,12.0112342 120.797549,11.2553711 L120.797549,9.87548828 C120.797549,9.11962513 120.402045,8.74169922 119.611025,8.74169922 C119.212586,8.74169922 118.915958,8.83251862 118.721133,9.01416016 C118.526307,9.19580169 118.428896,9.48290819 118.428896,9.87548828 L118.428896,11.2553711 Z M122.902529,12.9648438 L122.902529,8.16601562 C122.902529,8.11914039 123.043153,8.09570312 123.324404,8.09570312 C123.588077,8.09570312 123.719912,8.11914039 123.719912,8.16601562 L123.719912,8.97900391 C123.898624,8.70947131 124.115418,8.48095797 124.370303,8.29345703 C124.625187,8.10595609 124.900574,8.01220703 125.196474,8.01220703 C125.489445,8.01220703 125.734803,8.10742092 125.932558,8.29785156 C126.130313,8.4882822 126.259951,8.71093623 126.321474,8.96582031 C126.514835,8.69042831 126.739686,8.46264739 126.996035,8.2824707 C127.252384,8.10229402 127.525575,8.01220703 127.815615,8.01220703 C127.988467,8.01220703 128.153261,8.04296844 128.31,8.10449219 C128.466739,8.16601593 128.608095,8.25610292 128.734072,8.37475586 C128.860049,8.4934088 128.96039,8.65161034 129.035097,8.84936523 C129.109805,9.04712013 129.147158,9.2719714 129.147158,9.52392578 L129.147158,12.9648438 C129.147158,13.011719 129.006534,13.0351562 128.725283,13.0351562 C128.429383,13.0351562 128.281435,13.011719 128.281435,12.9648438 L128.281435,9.72607422 C128.281435,9.13134468 128.060246,8.83398438 127.617861,8.83398438 C127.406923,8.83398438 127.19086,8.92480378 126.969668,9.10644531 C126.748475,9.28808685 126.577823,9.49755741 126.457705,9.73486328 L126.457705,12.9648438 C126.457705,13.011719 126.312687,13.0351562 126.022646,13.0351562 C125.735535,13.0351562 125.591982,13.011719 125.591982,12.9648438 L125.591982,9.72607422 C125.591982,9.44775251 125.531924,9.22949298 125.411806,9.07128906 C125.291689,8.91308515 125.126163,8.83398438 124.915224,8.83398438 C124.716005,8.83398438 124.505802,8.93579 124.284609,9.1394043 C124.063417,9.3430186 123.889834,9.56201055 123.763857,9.79638672 L123.763857,12.9648438 C123.763857,13.011719 123.620304,13.0351562 123.333193,13.0351562 C123.046082,13.0351562 122.902529,13.011719 122.902529,12.9648438 Z" id="Direct-Download-from" fill="#FFFFFF"></path>
            <path d="M42.9233398,21.4335938 C42.9233398,21.3450516 42.9288736,21.2578943 42.9399414,21.1721191 C42.9510092,21.086344 42.9869789,21.043457 43.0478516,21.043457 L44.3344727,21.043457 L44.3344727,18.8105469 C44.3344727,18.7552081 44.3884272,18.7247722 44.4963379,18.7192383 C44.6042486,18.7137044 44.7024735,18.7109375 44.7910156,18.7109375 C44.8795577,18.7109375 44.9791661,18.7137044 45.0898438,18.7192383 C45.2005214,18.7247722 45.2558594,18.7552081 45.2558594,18.8105469 L45.2558594,21.043457 L47.2563477,21.043457 C47.3116865,21.043457 47.3435058,21.0821936 47.3518066,21.159668 C47.3601075,21.2371423 47.3642578,21.32845 47.3642578,21.4335938 C47.3642578,21.5332036 47.3614909,21.620361 47.355957,21.6950684 C47.3504231,21.7697758 47.3172204,21.8071289 47.2563477,21.8071289 L45.2558594,21.8071289 L45.2558594,28.215332 C45.2558594,28.5805682 45.3374829,28.8365064 45.5007324,28.9831543 C45.6639819,29.1298022 45.9337546,29.203125 46.3100586,29.203125 L47.2397461,29.203125 C47.2950849,29.203125 47.335205,29.2224933 47.3601074,29.2612305 C47.3850099,29.2999676 47.3974609,29.4051098 47.3974609,29.5766602 C47.3974609,29.770346 47.3863933,29.8893227 47.3642578,29.9335938 C47.3421223,29.9778648 47.3006188,30 47.2397461,30 L46.0859375,30 C45.4495411,30 44.9985365,29.8326026 44.7329102,29.4978027 C44.4672838,29.1630029 44.3344727,28.7465845 44.3344727,28.2485352 L44.3344727,21.8071289 L43.0478516,21.8071289 C42.9925127,21.8071289 42.9579265,21.7670089 42.9440918,21.6867676 C42.9302571,21.6065263 42.9233398,21.5221359 42.9233398,21.4335938 Z M49.1655273,26.8041992 L49.1655273,23.9985352 C49.1655273,23.4783503 49.2513012,23.0079774 49.4228516,22.5874023 C49.5944019,22.1668273 49.8323552,21.8098973 50.1367188,21.5166016 C50.4410823,21.2233058 50.8007792,20.9964201 51.2158203,20.8359375 C51.6308615,20.6754549 52.0763323,20.5952148 52.5522461,20.5952148 C53.072431,20.5952148 53.5441873,20.6782218 53.9675293,20.8442383 C54.3908713,21.0102547 54.756102,21.2454412 55.0632324,21.5498047 C55.3703629,21.8541682 55.6096997,22.2276996 55.78125,22.6704102 C55.9528003,23.1131207 56.0385742,23.6194633 56.0385742,24.1894531 L56.0385742,25.8496094 L50.0869141,25.8496094 L50.0869141,26.737793 C50.0869141,27.5512736 50.3013488,28.1931943 50.7302246,28.6635742 C51.1591005,29.1339542 51.8162391,29.3691406 52.7016602,29.3691406 C53.3712599,29.3691406 53.9218728,29.2958178 54.3535156,29.1491699 C54.7851584,29.0025221 55.1642236,28.8378915 55.4907227,28.6552734 C55.5239259,28.6442057 55.5723467,28.6732581 55.6359863,28.7424316 C55.699626,28.8116052 55.7563474,28.8918452 55.8061523,28.9831543 C55.8559573,29.0744633 55.891927,29.1643876 55.9140625,29.2529297 C55.936198,29.3414718 55.9251304,29.3968098 55.8808594,29.4189453 C55.4492166,29.66797 54.970543,29.861653 54.4448242,30 C53.9191054,30.138347 53.3491242,30.2075195 52.7348633,30.2075195 C51.6004175,30.2075195 50.7219269,29.9100778 50.0993652,29.3151855 C49.4768035,28.7202932 49.1655273,27.8833062 49.1655273,26.8041992 Z M50.0869141,25.1025391 L55.1171875,25.1025391 L55.1171875,24.0981445 C55.1171875,23.6443662 55.0493985,23.2486996 54.9138184,22.9111328 C54.7782383,22.573566 54.5942394,22.2941092 54.3618164,22.0727539 C54.1293934,21.8513986 53.8568538,21.6840012 53.5441895,21.5705566 C53.2315251,21.4571121 52.9008806,21.4003906 52.5522461,21.4003906 C52.2146793,21.4003906 51.8978693,21.4571121 51.6018066,21.5705566 C51.305744,21.6840012 51.044272,21.8513986 50.8173828,22.0727539 C50.5904937,22.2941092 50.4120286,22.5680322 50.2819824,22.8945312 C50.1519362,23.2210303 50.0869141,23.6056293 50.0869141,24.0483398 L50.0869141,25.1025391 Z M58.5952148,28.2485352 L58.5952148,17.3662109 C58.5952148,17.3108721 58.6491694,17.2804362 58.7570801,17.2749023 C58.8649908,17.2693685 58.9632157,17.2666016 59.0517578,17.2666016 C59.1402999,17.2666016 59.2399083,17.2693685 59.3505859,17.2749023 C59.4612636,17.2804362 59.5166016,17.3108721 59.5166016,17.3662109 L59.5166016,28.215332 C59.5166016,28.5805682 59.600992,28.8392733 59.7697754,28.9914551 C59.9385588,29.1436368 60.2110984,29.2197266 60.5874023,29.2197266 L61.0439453,29.2197266 C61.0992841,29.2197266 61.1380207,29.2390949 61.1601562,29.277832 C61.1822918,29.3165692 61.1933594,29.4217114 61.1933594,29.5932617 C61.1933594,29.7869476 61.1822918,29.9031574 61.1601562,29.9418945 C61.1380207,29.9806317 61.0992841,30 61.0439453,30 L60.3466797,30 C59.7102833,30 59.2592787,29.8353695 58.9936523,29.5061035 C58.728026,29.1768375 58.5952148,28.7576523 58.5952148,28.2485352 Z M62.7871094,26.8041992 L62.7871094,23.9985352 C62.7871094,23.4783503 62.8728833,23.0079774 63.0444336,22.5874023 C63.2159839,22.1668273 63.4539373,21.8098973 63.7583008,21.5166016 C64.0626643,21.2233058 64.4223612,20.9964201 64.8374023,20.8359375 C65.2524435,20.6754549 65.6979143,20.5952148 66.1738281,20.5952148 C66.694013,20.5952148 67.1657694,20.6782218 67.5891113,20.8442383 C68.0124533,21.0102547 68.377684,21.2454412 68.6848145,21.5498047 C68.9919449,21.8541682 69.2312817,22.2276996 69.402832,22.6704102 C69.5743824,23.1131207 69.6601562,23.6194633 69.6601562,24.1894531 L69.6601562,25.8496094 L63.7084961,25.8496094 L63.7084961,26.737793 C63.7084961,27.5512736 63.9229308,28.1931943 64.3518066,28.6635742 C64.7806825,29.1339542 65.4378211,29.3691406 66.3232422,29.3691406 C66.9928419,29.3691406 67.5434549,29.2958178 67.9750977,29.1491699 C68.4067404,29.0025221 68.7858057,28.8378915 69.1123047,28.6552734 C69.145508,28.6442057 69.1939287,28.6732581 69.2575684,28.7424316 C69.321208,28.8116052 69.3779294,28.8918452 69.4277344,28.9831543 C69.4775393,29.0744633 69.513509,29.1643876 69.5356445,29.2529297 C69.5577801,29.3414718 69.5467125,29.3968098 69.5024414,29.4189453 C69.0707986,29.66797 68.592125,29.861653 68.0664062,30 C67.5406875,30.138347 66.9707062,30.2075195 66.3564453,30.2075195 C65.2219995,30.2075195 64.343509,29.9100778 63.7209473,29.3151855 C63.0983856,28.7202932 62.7871094,27.8833062 62.7871094,26.8041992 Z M63.7084961,25.1025391 L68.7387695,25.1025391 L68.7387695,24.0981445 C68.7387695,23.6443662 68.6709805,23.2486996 68.5354004,22.9111328 C68.3998203,22.573566 68.2158215,22.2941092 67.9833984,22.0727539 C67.7509754,21.8513986 67.4784358,21.6840012 67.1657715,21.5705566 C66.8531072,21.4571121 66.5224627,21.4003906 66.1738281,21.4003906 C65.8362613,21.4003906 65.5194514,21.4571121 65.2233887,21.5705566 C64.927326,21.6840012 64.665854,21.8513986 64.4389648,22.0727539 C64.2120757,22.2941092 64.0336107,22.5680322 63.9035645,22.8945312 C63.7735182,23.2210303 63.7084961,23.6056293 63.7084961,24.0483398 L63.7084961,25.1025391 Z M72.25,29.9667969 L72.25,20.8193359 C72.25,20.7639971 72.3039545,20.7335612 72.4118652,20.7280273 C72.5197759,20.7224935 72.6207678,20.7197266 72.7148438,20.7197266 C72.8033859,20.7197266 72.8988439,20.7224935 73.0012207,20.7280273 C73.1035975,20.7335612 73.1547852,20.7639971 73.1547852,20.8193359 L73.1547852,22.4711914 C73.5200214,21.9510065 73.9765598,21.5083026 74.5244141,21.1430664 C75.0722684,20.7778302 75.68652,20.5952148 76.3671875,20.5952148 C77.1142615,20.5952148 77.7036111,20.8456192 78.1352539,21.3464355 C78.5668967,21.8472519 78.7827148,22.5043905 78.7827148,23.3178711 L78.7827148,29.9667969 C78.7827148,30.0221357 78.7287603,30.0525716 78.6208496,30.0581055 C78.5129389,30.0636394 78.4119471,30.0664062 78.3178711,30.0664062 C78.229329,30.0664062 78.1311041,30.0636394 78.0231934,30.0581055 C77.9152827,30.0525716 77.8613281,30.0221357 77.8613281,29.9667969 L77.8613281,23.7246094 C77.8613281,22.9664676 77.7049983,22.4089373 77.392334,22.052002 C77.0796697,21.6950666 76.6466499,21.5166016 76.0932617,21.5166016 C75.799966,21.5166016 75.5135919,21.573323 75.2341309,21.6867676 C74.9546698,21.8002122 74.6904309,21.9510082 74.4414062,22.1391602 C74.1923816,22.3273121 73.9613455,22.5403634 73.748291,22.7783203 C73.5352366,23.0162772 73.3429371,23.2542306 73.1713867,23.4921875 L73.1713867,29.9667969 C73.1713867,30.0221357 73.1174322,30.0525716 73.0095215,30.0581055 C72.9016108,30.0636394 72.8033859,30.0664062 72.7148438,30.0664062 C72.6263016,30.0664062 72.5266933,30.0636394 72.4160156,30.0581055 C72.305338,30.0525716 72.25,30.0221357 72.25,29.9667969 Z M81.2397461,26.887207 L81.2397461,23.9155273 C81.2397461,22.8364204 81.5454885,22.0132678 82.1569824,21.4460449 C82.7684764,20.878822 83.6414331,20.5952148 84.7758789,20.5952148 C85.9103247,20.5952148 86.7888152,20.878822 87.411377,21.4460449 C88.0339387,22.0132678 88.3452148,22.8364204 88.3452148,23.9155273 L88.3452148,26.887207 C88.3452148,27.9552462 88.0339387,28.7756319 87.411377,29.3483887 C86.7888152,29.9211454 85.9103247,30.2075195 84.7758789,30.2075195 C83.6414331,30.2075195 82.7684764,29.9211454 82.1569824,29.3483887 C81.5454885,28.7756319 81.2397461,27.9552462 81.2397461,26.887207 Z M82.1611328,26.737793 C82.1611328,27.7006884 82.3935524,28.3827291 82.8583984,28.7839355 C83.3232445,29.185142 83.9623983,29.3857422 84.7758789,29.3857422 C85.6059612,29.3857422 86.2561825,29.1879089 86.7265625,28.7922363 C87.1969425,28.3965638 87.4321289,27.7117562 87.4321289,26.737793 L87.4321289,24.0649414 C87.4321289,23.102046 87.1969425,22.4227722 86.7265625,22.0270996 C86.2561825,21.6314271 85.6059612,21.4335938 84.7758789,21.4335938 C83.9623983,21.4335938 83.3232445,21.6314271 82.8583984,22.0270996 C82.3935524,22.4227722 82.1611328,23.102046 82.1611328,24.0649414 L82.1611328,26.737793 Z M90.9433594,29.9667969 L90.9433594,20.8193359 C90.9433594,20.7639971 90.994547,20.7335612 91.0969238,20.7280273 C91.1993006,20.7224935 91.2947587,20.7197266 91.3833008,20.7197266 C91.4718429,20.7197266 91.5659175,20.7224935 91.6655273,20.7280273 C91.7651372,20.7335612 91.8149414,20.7639971 91.8149414,20.8193359 L91.8149414,22.8779297 C92.0639661,22.490558 92.2936187,22.1612969 92.5039062,21.8901367 C92.7141938,21.6189765 92.914794,21.399008 93.1057129,21.2302246 C93.2966318,21.0614412 93.4944651,20.9396976 93.6992188,20.8649902 C93.9039724,20.7902828 94.1363919,20.7529297 94.3964844,20.7529297 L94.7368164,20.7529297 C94.7921552,20.7529297 94.8225911,20.812418 94.828125,20.9313965 C94.8336589,21.0503749 94.8364258,21.1541337 94.8364258,21.2426758 C94.8364258,21.3312179 94.8281251,21.4308263 94.8115234,21.5415039 C94.7949218,21.6521815 94.7589521,21.7075195 94.7036133,21.7075195 L94.1557617,21.7075195 C93.7794578,21.7075195 93.4197608,21.8804507 93.0766602,22.2263184 C92.7335595,22.572186 92.3240584,23.1020472 91.8481445,23.815918 L91.8481445,29.9667969 C91.8481445,30.0221357 91.79419,30.0525716 91.6862793,30.0581055 C91.5783686,30.0636394 91.4773768,30.0664062 91.3833008,30.0664062 C91.2947587,30.0664062 91.1993006,30.0636394 91.0969238,30.0581055 C90.994547,30.0525716 90.9433594,30.0221357 90.9433594,29.9667969 Z M95.6000977,29.9667969 L95.6000977,27.9414062 C95.6000977,27.8860674 95.6568191,27.8556315 95.7702637,27.8500977 C95.8837082,27.8445638 95.9847001,27.8417969 96.0732422,27.8417969 C96.1617843,27.8417969 96.2641596,27.8445638 96.3803711,27.8500977 C96.4965826,27.8556315 96.5546875,27.8860674 96.5546875,27.9414062 L96.5546875,29.9667969 C96.5546875,30.0221357 96.4965826,30.0525716 96.3803711,30.0581055 C96.2641596,30.0636394 96.1617843,30.0664062 96.0732422,30.0664062 C95.9847001,30.0664062 95.8837082,30.0636394 95.7702637,30.0581055 C95.6568191,30.0525716 95.6000977,30.0221357 95.6000977,29.9667969 Z M99.0449219,26.887207 L99.0449219,23.9155273 C99.0449219,22.8364204 99.3451305,22.0132678 99.9455566,21.4460449 C100.545983,20.878822 101.380203,20.5952148 102.448242,20.5952148 C103.062503,20.5952148 103.592364,20.6865225 104.037842,20.8691406 C104.483319,21.0517587 104.894204,21.2786445 105.270508,21.5498047 C105.325847,21.5940757 105.345215,21.6618648 105.328613,21.7531738 C105.312012,21.8444829 105.277425,21.9357906 105.224854,22.0270996 C105.172282,22.1184087 105.112793,22.1917315 105.046387,22.2470703 C104.97998,22.3024091 104.924642,22.3134767 104.880371,22.2802734 C104.825032,22.2470701 104.725424,22.182048 104.581543,22.0852051 C104.437662,21.9883621 104.263347,21.8887538 104.058594,21.786377 C103.85384,21.6840001 103.618654,21.5968428 103.353027,21.5249023 C103.087401,21.4529619 102.807944,21.4169922 102.514648,21.4169922 C101.701168,21.4169922 101.073082,21.6341938 100.630371,22.0686035 C100.187661,22.5030132 99.9663086,23.1684525 99.9663086,24.0649414 L99.9663086,26.737793 C99.9663086,27.6232141 100.187661,28.2858865 100.630371,28.7258301 C101.073082,29.1657737 101.701168,29.3857422 102.514648,29.3857422 C103.10124,29.3857422 103.593748,29.2847504 103.992188,29.0827637 C104.390627,28.880777 104.70882,28.6884775 104.946777,28.5058594 C104.991048,28.4726561 105.045003,28.4809568 105.108643,28.5307617 C105.172282,28.5805667 105.229004,28.6455888 105.278809,28.7258301 C105.328614,28.8060714 105.364583,28.8876949 105.386719,28.9707031 C105.397787,29.0039064 105.40332,29.0343423 105.40332,29.0620117 C105.40332,29.1007489 105.392253,29.1311848 105.370117,29.1533203 C105.087889,29.4134128 104.683922,29.654133 104.158203,29.8754883 C103.632484,30.0968436 103.062503,30.2075195 102.448242,30.2075195 C101.380203,30.2075195 100.545983,29.9211454 99.9455566,29.3483887 C99.3451305,28.7756319 99.0449219,27.9552462 99.0449219,26.887207 Z M107.187988,26.887207 L107.187988,23.9155273 C107.187988,22.8364204 107.493731,22.0132678 108.105225,21.4460449 C108.716719,20.878822 109.589675,20.5952148 110.724121,20.5952148 C111.858567,20.5952148 112.737057,20.878822 113.359619,21.4460449 C113.982181,22.0132678 114.293457,22.8364204 114.293457,23.9155273 L114.293457,26.887207 C114.293457,27.9552462 113.982181,28.7756319 113.359619,29.3483887 C112.737057,29.9211454 111.858567,30.2075195 110.724121,30.2075195 C109.589675,30.2075195 108.716719,29.9211454 108.105225,29.3483887 C107.493731,28.7756319 107.187988,27.9552462 107.187988,26.887207 Z M108.109375,26.737793 C108.109375,27.7006884 108.341795,28.3827291 108.806641,28.7839355 C109.271487,29.185142 109.91064,29.3857422 110.724121,29.3857422 C111.554203,29.3857422 112.204425,29.1879089 112.674805,28.7922363 C113.145185,28.3965638 113.380371,27.7117562 113.380371,26.737793 L113.380371,24.0649414 C113.380371,23.102046 113.145185,22.4227722 112.674805,22.0270996 C112.204425,21.6314271 111.554203,21.4335938 110.724121,21.4335938 C109.91064,21.4335938 109.271487,21.6314271 108.806641,22.0270996 C108.341795,22.4227722 108.109375,23.102046 108.109375,24.0649414 L108.109375,26.737793 Z M116.891602,29.9667969 L116.891602,20.8193359 C116.891602,20.7639971 116.942789,20.7335612 117.045166,20.7280273 C117.147543,20.7224935 117.243001,20.7197266 117.331543,20.7197266 C117.420085,20.7197266 117.519693,20.7224935 117.630371,20.7280273 C117.741049,20.7335612 117.796387,20.7639971 117.796387,20.8193359 L117.796387,22.5874023 C117.945802,22.3494454 118.115966,22.1114921 118.306885,21.8735352 C118.497804,21.6355782 118.709471,21.422527 118.941895,21.234375 C119.174318,21.046223 119.426105,20.8926601 119.697266,20.7736816 C119.968426,20.6547032 120.253416,20.5952148 120.552246,20.5952148 C120.878745,20.5952148 121.166503,20.6588535 121.415527,20.7861328 C121.664552,20.9134121 121.877603,21.0725088 122.054688,21.2634277 C122.231772,21.4543467 122.372884,21.6660145 122.478027,21.8984375 C122.583171,22.1308605 122.65511,22.3605132 122.693848,22.5874023 C122.865398,22.3162421 123.054931,22.0616874 123.262451,21.8237305 C123.469972,21.5857735 123.692707,21.3754892 123.930664,21.1928711 C124.168621,21.010253 124.417642,20.8649908 124.677734,20.7570801 C124.937827,20.6491694 125.203449,20.5952148 125.474609,20.5952148 C126.177412,20.5952148 126.74186,20.8248675 127.167969,21.2841797 C127.594078,21.7434919 127.807129,22.3826456 127.807129,23.2016602 L127.807129,29.9667969 C127.807129,30.0221357 127.753174,30.0525716 127.645264,30.0581055 C127.537353,30.0636394 127.439128,30.0664062 127.350586,30.0664062 C127.262044,30.0664062 127.162435,30.0636394 127.051758,30.0581055 C126.94108,30.0525716 126.885742,30.0221357 126.885742,29.9667969 L126.885742,23.5585938 C126.885742,22.8779263 126.750164,22.3702002 126.479004,22.0354004 C126.207844,21.7006005 125.834312,21.5332031 125.358398,21.5332031 C125.109374,21.5332031 124.865887,21.5899246 124.62793,21.7033691 C124.389973,21.8168137 124.16032,21.9703766 123.938965,22.1640625 C123.71761,22.3577484 123.511476,22.5791003 123.320557,22.828125 C123.129638,23.0771497 122.959473,23.3372382 122.810059,23.6083984 L122.810059,29.9667969 C122.810059,30.0221357 122.756104,30.0525716 122.648193,30.0581055 C122.540283,30.0636394 122.442058,30.0664062 122.353516,30.0664062 C122.264974,30.0664062 122.165365,30.0636394 122.054688,30.0581055 C121.94401,30.0525716 121.888672,30.0221357 121.888672,29.9667969 L121.888672,23.5585938 C121.888672,22.9000618 121.739259,22.3978696 121.44043,22.052002 C121.1416,21.7061343 120.770836,21.5332031 120.328125,21.5332031 C120.0791,21.5332031 119.832846,21.6009922 119.589355,21.7365723 C119.345865,21.8721524 119.113445,22.0450836 118.89209,22.2553711 C118.670735,22.4656586 118.468751,22.6953113 118.286133,22.9443359 C118.103515,23.1933606 117.945801,23.431314 117.812988,23.6582031 L117.812988,29.9667969 C117.812988,30.0221357 117.759034,30.0525716 117.651123,30.0581055 C117.543212,30.0636394 117.444987,30.0664062 117.356445,30.0664062 C117.267903,30.0664062 117.168295,30.0636394 117.057617,30.0581055 C116.94694,30.0525716 116.891602,30.0221357 116.891602,29.9667969 Z" id="telenor.com" fill="#FFFFFF"></path>
            <path d="M21.6732451,14.6525477 C22.0512849,14.7160708 22.1458122,14.6207773 22.1773271,14.2713565 C22.2718023,13.6995784 22.460857,12.7466267 22.9334415,11.793675 C23.4375409,10.7454298 24.2566851,9.60187372 25.3593592,8.83952637 C26.3045456,8.20420769 27.8482545,7.47361312 29.0769708,7.21950318 C30.0536374,6.99714602 30.9672741,6.9653757 31.7864183,7.02889881 C33.4246719,7.18773286 34.3068459,7.63244717 34.7478808,8.235978 C34.9054553,8.45833516 35,8.74423295 35,8.93481979 C35,9.22070004 34.8738883,9.63364404 34.4643509,10.0148352 C34.0547962,10.3960089 33.1726222,10.8407232 31.9439233,11.2536672 C30.6837269,11.6666112 28.9509459,12.1113255 27.2496451,12.5242695 C25.8004114,12.8419376 24.981302,13.1278179 24.3196454,13.3819278 C23.1854565,13.763119 22.8389489,14.9066576 23.5635484,15.2560785 C24.5717299,15.7643159 25.2332996,16.2725709 25.7689486,16.7172676 C26.5880581,17.3843391 27.5332097,18.1784743 28.6989136,19.6079107 C29.7700727,20.9102657 31.5028363,23.4197176 32.1330127,25.8656287 C32.8260278,28.5338971 32.3849929,31.0751017 30.9042617,31.7739435 C29.4234957,32.4727677 27.4701799,31.4562929 26.0839239,30.0268565 C24.7607498,28.6609608 23.8471304,27.0409376 22.9964539,24.5632561 C22.2403048,22.4349955 21.956775,19.3220129 21.956775,17.73376 C21.956775,17.1937523 21.956775,17.0666885 21.956775,16.5902214 C22.0198221,16.1772599 20.8856332,15.827839 19.6568995,16.5902214 C18.2706435,17.4796325 16.9159371,19.131426 16.096845,20.0843778 C15.7502506,20.4973218 15.2776835,21.1008526 14.7736014,21.7361537 C14.1120144,22.5620593 13.3873628,23.4514703 12.7257757,23.927955 C11.7176116,24.6585495 10.1108208,24.9762001 8.97663182,24.1503121 C8.34655967,23.7055978 8.03144541,22.8479395 8,21.9902812 C8,21.3867504 8.12597274,20.8149723 8.44105225,20.2749646 C8.81914419,19.6078931 9.44923372,18.8772986 10.425935,18.0831634 C11.434047,17.225505 13.0723701,16.2725533 14.7106237,15.6372522 C17.1995017,14.6525477 19.8773996,14.3348796 21.6732451,14.6525477 Z" id="Fill-31" fill="#FFFFFF" fill-rule="nonzero"></path>
        </g>
    </g>
</svg>