<?xml version="1.0" encoding="UTF-8"?>
<svg width="50px" height="46px" viewBox="0 0 50 46" version="1.1" xmlns="http://www.w3.org/2000/svg" xmlns:xlink="http://www.w3.org/1999/xlink">
    <!-- Generator: Sketch 48.2 (47327) - http://www.bohemiancoding.com/sketch -->
    <title>xxxhdpi/Fill 31</title>
    <desc>Created with Sketch.</desc>
    <defs></defs>
    <g id="Page-1" stroke="none" stroke-width="1" fill="none" fill-rule="evenodd">
        <path d="M25.3208242,14.0806877 C26.020898,14.1975702 26.1959486,14.0222303 26.2543095,13.3792959 C26.4292636,12.3272243 26.7793648,10.5737931 27.6545213,8.82036193 C28.5880388,6.89159086 30.1049725,4.78744765 32.1469614,3.38472852 C33.8973066,2.21574214 36.7560269,0.871448135 39.0314274,0.403885845 C40.8400692,-0.00525132122 42.5319891,-0.0637087054 44.0489228,0.0531738017 C47.0827258,0.345428461 48.7163813,1.16370279 49.5331126,2.27419953 C49.8249172,2.68333669 50,3.20938863 50,3.56006841 C50,4.08608808 49.7664598,4.84590503 49.0080573,5.54729686 C48.2496226,6.24865642 46.6159671,7.06693075 44.3405987,7.8267477 C42.0069016,8.58656465 38.798048,9.40483899 35.647491,10.1646559 C32.9637249,10.7491653 31.4468555,11.2751849 30.2215656,11.7427472 C28.1212157,12.444139 27.4795351,14.54825 28.821386,15.1911844 C30.6883887,16.1263413 31.9135177,17.0615304 32.9054604,17.8797725 C34.4223298,19.107184 36.1726106,20.5683927 38.3313215,23.1985556 C40.3149495,25.594889 43.523771,30.2122803 44.6907643,34.7127569 C45.9741256,39.6223706 45.1573943,44.2981871 42.4152994,45.584056 C39.6731402,46.8698926 36.0558888,44.9995789 33.488748,42.369416 C31.0384256,39.8561679 29.3465378,36.8753252 27.771211,32.3163913 C26.3709348,28.4003918 25.8458795,22.6725037 25.8458795,19.7501184 C25.8458795,18.7565042 25.8458795,18.5227069 25.8458795,17.6460074 C25.9626336,16.8861582 23.8622837,16.2432238 21.586851,17.6460074 C19.0197102,19.2825238 16.5109946,22.3218239 14.9941575,24.0752551 C14.352316,24.835072 13.4771916,25.9455688 12.5437063,27.1145229 C11.3185451,28.634189 9.97659772,30.2707054 8.7514365,31.1474371 C6.88446596,32.4917312 3.90892736,33.0762082 1.80857745,31.5565743 C0.641777158,30.7383 0.0582322366,29.1602087 0,27.5821174 C0,26.4716207 0.233282844,25.4195491 0.81676342,24.4259349 C1.51693368,23.1985234 2.68376614,21.8542293 4.49247228,20.3930206 C6.35934631,18.8149293 9.39327801,17.0614981 12.427081,15.892544 C17.0361143,14.0806877 21.9951844,13.4961784 25.3208242,14.0806877 Z" id="Fill-31" fill="#00AAF8"></path>
    </g>
</svg>